<?xml version="1.0" standalone="no"?>
<!DOCTYPE svg PUBLIC "-//W3C//DTD SVG 20010904//EN"
 "http://www.w3.org/TR/2001/REC-SVG-20010904/DTD/svg10.dtd">
<svg version="1.0" xmlns="http://www.w3.org/2000/svg"
 width="1723.000000pt" height="508.000000pt" viewBox="0 0 1723.000000 508.000000"
 preserveAspectRatio="xMidYMid meet">

<g transform="translate(0.000000,508.000000) scale(0.100000,-0.100000)"
fill="#000000" stroke="none">
<path d="M4175 4539 c-251 -45 -421 -96 -627 -190 -131 -59 -231 -115 -378
-212 -140 -92 -194 -136 -263 -212 -62 -69 -190 -265 -199 -305 -3 -14 -13
-51 -22 -84 -14 -52 -14 -62 -1 -90 22 -46 72 -76 128 -76 26 0 47 5 47 10 0
6 6 10 13 10 18 0 43 29 52 60 18 65 72 181 113 245 90 137 330 353 472 425
25 13 47 26 50 30 3 4 54 31 113 60 110 53 134 71 62 45 -54 -19 -91 -19 -50
0 124 58 256 115 266 115 16 0 161 71 156 76 -3 3 -45 -8 -93 -25 -95 -33
-108 -36 -99 -22 3 5 20 13 38 16 17 4 64 22 104 41 40 19 76 34 80 34 5 0 42
13 83 29 65 26 70 30 40 29 -19 0 -57 -4 -85 -9z m-308 -185 c-3 -3 -12 -4
-19 -1 -8 3 -5 6 6 6 11 1 17 -2 13 -5z"/>
<path d="M7212 2823 l3 -848 85 0 85 0 3 848 2 847 -90 0 -90 0 2 -847z"/>
<path d="M516 3613 c-3 -3 -1 -15 4 -27 13 -35 227 -837 336 -1261 36 -137 72
-274 81 -302 l17 -53 85 0 c47 0 95 3 107 6 23 6 17 -10 123 379 51 186 113
405 207 728 30 103 54 191 55 195 1 16 22 -49 70 -222 43 -156 118 -421 268
-951 l37 -130 86 -3 c133 -4 125 -13 180 194 25 99 72 274 102 389 31 116 85
320 121 455 35 135 87 324 114 420 28 96 47 178 42 183 -4 4 -48 7 -97 5 l-89
-3 -26 -91 c-14 -50 -93 -359 -175 -687 -82 -328 -151 -597 -154 -597 -6 0
-81 252 -149 505 -27 99 -71 259 -99 355 -28 96 -69 244 -92 328 l-42 152 -94
0 -93 0 -11 -42 c-6 -24 -42 -153 -80 -288 -121 -433 -187 -671 -230 -830 -23
-85 -46 -162 -50 -170 -11 -18 -13 -13 -34 75 -51 216 -323 1275 -328 1280 -6
5 -187 13 -192 8z"/>
<path d="M10848 3613 l-488 -3 0 -85 0 -85 250 0 250 0 0 -735 0 -736 88 3 87
3 3 733 2 732 245 0 245 0 0 84 0 83 -46 7 c-26 3 -70 5 -98 4 -28 -2 -270 -4
-538 -5z"/>
<path d="M4137 3449 c-4 -51 -7 -118 -7 -151 0 -32 -2 -58 -4 -58 -12 0 -164
-21 -183 -25 -21 -5 -23 -11 -23 -70 l0 -65 105 0 105 0 0 -412 c0 -448 5
-494 54 -568 64 -97 151 -130 338 -130 l128 0 0 80 0 80 -115 0 c-95 0 -123 3
-154 20 -70 35 -71 43 -71 515 l0 415 170 0 171 0 -3 78 -3 77 -167 3 -167 2
-3 148 -3 147 -81 3 -81 3 -6 -92z"/>
<path d="M15127 3533 c-3 -5 -8 -72 -12 -149 l-7 -142 -37 -5 c-20 -3 -64 -9
-98 -13 l-63 -7 0 -68 0 -69 99 0 100 0 3 -432 c4 -427 4 -434 27 -493 16 -39
40 -76 70 -106 64 -62 127 -79 294 -79 l126 0 6 33 c4 18 5 53 3 77 l-3 45
-125 5 c-145 6 -170 16 -201 83 -17 39 -19 71 -19 448 0 362 2 408 16 413 9 3
85 6 170 6 l155 0 -3 78 -3 77 -150 1 c-82 0 -158 1 -167 2 -16 2 -18 17 -18
152 l0 150 -79 0 c-44 0 -82 -3 -84 -7z"/>
<path d="M6181 3235 c-57 -8 -110 -16 -118 -19 -10 -4 -13 -20 -11 -57 5 -79
18 -83 353 -80 268 2 270 2 315 -21 70 -38 84 -72 89 -210 l3 -116 -278 -4
c-261 -4 -283 -5 -335 -26 -75 -30 -142 -90 -175 -158 -23 -47 -27 -71 -32
-168 -3 -73 0 -133 8 -167 23 -99 92 -183 185 -224 58 -26 304 -33 398 -11 76
18 149 52 196 92 18 14 35 23 39 19 4 -3 12 -30 17 -58 l10 -52 70 0 70 0 0
505 c0 500 0 506 -23 561 -32 79 -81 132 -160 171 l-66 33 -226 2 c-144 1
-262 -3 -329 -12z m629 -803 c0 -123 -2 -143 -22 -182 -48 -94 -146 -130 -353
-130 -116 0 -136 3 -175 23 -67 33 -90 85 -90 202 1 137 29 185 130 216 14 4
134 8 268 8 l242 1 0 -138z"/>
<path d="M8065 3243 c-59 -12 -148 -51 -209 -90 -37 -24 -71 -42 -73 -39 -3 3
-11 31 -17 63 l-12 58 -69 0 -70 0 0 -630 0 -630 85 0 85 0 5 480 c5 450 6
482 24 508 48 70 195 117 370 117 124 0 168 -9 204 -42 58 -55 57 -41 62 -573
l5 -490 88 -3 87 -3 0 495 c0 459 -1 499 -19 556 -37 117 -107 186 -217 215
-55 14 -276 20 -329 8z"/>
<path d="M9124 3240 c-105 -21 -199 -93 -251 -192 l-28 -53 0 -390 0 -390 26
-55 c34 -73 90 -126 169 -164 63 -29 71 -31 231 -34 158 -4 282 4 452 30 l78
12 -3 55 -3 55 -45 14 c-38 11 -78 12 -245 1 -335 -20 -411 -5 -465 91 -23 41
-25 56 -25 170 l0 125 355 5 c252 4 361 9 376 17 31 18 83 80 90 107 3 14 4
98 2 188 -3 148 -6 167 -28 213 -49 100 -147 174 -259 195 -63 12 -367 12
-427 0z m424 -176 c48 -20 89 -59 101 -98 6 -17 11 -79 13 -137 4 -161 32
-149 -344 -149 l-308 0 0 113 c0 168 25 232 104 268 35 16 67 19 219 19 138 0
186 -3 215 -16z"/>
<path d="M11590 3234 c-63 -7 -121 -16 -128 -19 -9 -3 -12 -21 -10 -57 3 -52
4 -53 43 -67 31 -11 99 -14 305 -12 259 2 266 2 310 -21 70 -36 90 -85 90
-219 l0 -107 -277 -4 c-259 -4 -282 -6 -334 -26 -73 -29 -142 -90 -177 -156
-26 -49 -27 -57 -27 -201 0 -132 3 -156 21 -196 31 -67 87 -124 152 -156 53
-26 68 -28 203 -31 85 -3 168 1 201 7 66 14 161 58 205 95 18 15 37 25 42 22
5 -3 12 -28 16 -55 8 -56 13 -59 96 -57 l54 1 0 505 0 505 -24 60 c-30 75
-106 152 -176 179 -43 16 -81 20 -260 22 -138 2 -249 -2 -325 -12z m610 -804
c0 -160 -9 -192 -63 -236 -69 -54 -118 -67 -280 -72 -174 -5 -219 6 -265 66
-26 34 -27 40 -27 157 0 117 1 123 27 157 46 60 79 66 361 67 l247 1 0 -140z"/>
<path d="M12870 3239 c-80 -16 -165 -65 -204 -118 -75 -102 -71 -52 -71 -866
l0 -730 87 -3 88 -3 2 275 3 275 43 -29 c98 -66 138 -74 343 -75 l186 0 69 35
c50 25 79 49 106 85 72 95 73 104 73 520 0 422 -2 436 -80 523 -53 59 -121 97
-199 111 -70 13 -381 13 -446 0z m469 -192 c78 -52 81 -64 81 -442 0 -301 -2
-334 -19 -371 -42 -92 -121 -119 -330 -112 -183 6 -240 31 -282 123 -17 36
-19 70 -19 363 0 268 3 329 15 359 21 50 42 72 90 95 35 16 62 18 231 16 190
-3 191 -3 233 -31z"/>
<path d="M14075 3236 c-100 -25 -187 -92 -234 -180 -38 -73 -43 -130 -39 -484
3 -327 4 -339 27 -397 32 -80 107 -154 186 -185 104 -41 402 -40 678 2 l78 12
-3 55 -3 55 -55 14 c-46 12 -83 12 -220 3 -316 -22 -401 -12 -459 54 -41 47
-51 90 -51 223 l0 112 350 0 c387 0 381 -1 438 64 40 46 45 74 40 253 -3 134
-5 153 -29 203 -49 105 -122 166 -235 195 -73 19 -394 20 -469 1z m478 -186
c61 -41 77 -87 77 -220 0 -92 -3 -117 -17 -132 -15 -17 -38 -18 -325 -18
l-308 0 0 128 c0 138 13 185 61 228 43 38 76 43 280 41 190 -2 196 -3 232 -27z"/>
<path d="M2704 3227 c-2 -7 -3 -291 -2 -632 l3 -620 85 0 85 0 0 630 0 630
-83 2 c-57 2 -84 -2 -88 -10z"/>
<path d="M3364 3230 c-105 -21 -184 -85 -233 -189 l-26 -56 0 -505 0 -505 65
-3 c35 -2 75 0 87 3 l23 5 0 473 c1 496 3 520 47 569 37 42 79 50 271 56 l182
5 0 78 0 79 -187 -1 c-104 -1 -206 -5 -229 -9z"/>
<path d="M5626 3233 c-3 -4 -6 -215 -6 -470 0 -439 -1 -466 -19 -501 -23 -44
-67 -75 -143 -102 -130 -45 -323 -52 -389 -14 -19 11 -45 40 -59 65 l-25 44
-3 488 -3 487 -89 0 -89 0 5 -487 c3 -289 10 -508 16 -538 15 -70 39 -114 90
-163 66 -65 124 -82 276 -82 168 0 268 28 388 110 25 16 46 30 48 30 2 0 9
-27 15 -59 l12 -60 52 -5 c29 -4 61 -5 72 -3 20 4 20 12 20 633 l0 629 -82 2
c-44 1 -84 -1 -87 -4z"/>
<path d="M15782 3232 c-10 -7 -8 -23 13 -78 15 -38 62 -161 105 -274 69 -182
164 -429 303 -792 l45 -116 -89 -224 c-49 -122 -89 -225 -89 -227 0 -6 176 6
187 12 10 7 118 285 241 622 101 275 281 757 346 923 31 79 53 148 50 153 -6
11 -154 12 -171 1 -7 -4 -19 -23 -27 -42 -28 -68 -279 -766 -315 -877 -34
-107 -47 -129 -56 -100 -19 62 -239 670 -337 932 l-34 90 -79 3 c-44 1 -86 -2
-93 -6z"/>
<path d="M4603 1173 c2253 -2 5941 -2 8195 0 2253 1 409 2 -4098 2 -4507 0
-6351 -1 -4097 -2z"/>
<path d="M2750 780 c-17 -3 -10 -6 25 -10 l50 -5 0 -132 c0 -98 3 -133 12
-133 9 0 13 36 15 133 l3 132 50 6 c44 4 38 6 -40 10 -49 2 -101 2 -115 -1z"/>
<path d="M3430 646 c0 -123 2 -146 15 -146 12 0 15 13 15 55 l0 55 40 0 c83 0
131 51 110 116 -15 43 -34 53 -115 61 l-65 6 0 -147z m135 104 c9 -7 15 -29
15 -51 0 -46 -27 -69 -82 -69 l-38 0 0 71 0 72 45 -5 c25 -3 52 -11 60 -18z"/>
<path d="M3788 782 l-28 -3 0 -140 0 -139 85 0 c50 0 85 4 85 10 0 6 -29 10
-68 10 -38 0 -71 2 -73 4 -3 3 -2 29 1 58 l5 53 55 6 55 6 -57 1 -58 2 0 60 0
59 73 3 72 3 -60 5 c-33 3 -72 4 -87 2z"/>
<path d="M4050 778 c0 -4 19 -8 43 -10 l42 -3 3 -132 c2 -109 5 -133 17 -133
12 0 15 19 16 98 1 177 -1 167 39 169 58 2 60 3 60 11 0 4 -50 7 -110 7 -61 0
-110 -3 -110 -7z"/>
<path d="M4380 782 c0 -6 23 -47 50 -91 44 -71 50 -87 50 -136 0 -42 3 -55 15
-55 18 0 20 16 3 23 -10 4 -10 6 0 6 8 1 12 18 12 49 0 35 7 60 28 93 73 116
76 122 58 112 -10 -5 -34 -38 -55 -73 -20 -35 -40 -63 -45 -64 -5 -1 -28 30
-50 68 -38 64 -66 93 -66 68z"/>
<path d="M5736 780 c-16 -5 -42 -21 -57 -36 -55 -52 -48 -167 12 -218 41 -35
132 -37 173 -5 54 42 69 112 42 189 -9 26 -24 41 -56 58 -47 23 -67 26 -114
12z m114 -39 c32 -23 52 -97 39 -145 -15 -54 -52 -77 -117 -74 -69 4 -93 31
-99 110 -5 65 11 97 57 121 40 20 82 16 120 -12z"/>
<path d="M6140 772 c-51 -25 -80 -74 -80 -134 0 -91 54 -143 147 -141 31 0 63
7 78 17 21 14 25 24 25 66 l0 50 -40 0 c-22 0 -40 -4 -40 -10 0 -5 12 -10 26
-10 23 0 25 -3 22 -42 -3 -40 -5 -43 -39 -51 -22 -5 -52 -4 -76 2 -51 14 -73
51 -73 126 0 49 4 60 29 85 38 39 71 45 127 26 26 -9 49 -14 52 -12 9 10 -11
26 -46 36 -51 14 -72 13 -112 -8z"/>
<path d="M6542 780 c-68 -16 -104 -81 -92 -166 12 -82 51 -114 140 -114 41 0
55 5 84 30 81 72 68 207 -24 244 -44 17 -57 18 -108 6z m111 -37 c24 -22 47
-74 47 -108 0 -30 -26 -85 -49 -102 -9 -7 -39 -13 -67 -13 -43 0 -54 4 -79 30
-23 25 -28 37 -28 83 0 91 46 141 122 132 18 -2 43 -12 54 -22z"/>
<path d="M6840 778 c0 -9 15 -13 47 -13 l48 0 0 -133 c0 -99 3 -132 13 -132 9
0 12 29 14 108 1 59 1 117 1 129 -1 19 4 22 48 25 27 2 50 8 52 13 1 6 -42 11
-110 13 -87 2 -113 0 -113 -10z"/>
<path d="M7170 785 c0 -5 20 -42 44 -84 34 -59 46 -90 52 -138 4 -44 11 -63
21 -63 10 0 13 14 12 60 -2 56 1 64 50 141 55 86 56 89 42 89 -10 0 -60 -71
-86 -121 -9 -16 -20 -29 -24 -29 -5 0 -25 29 -45 63 -33 59 -66 100 -66 82z"/>
<path d="M7540 644 c0 -121 2 -144 15 -144 12 0 15 13 15 59 l0 60 50 -1 c81
0 122 41 106 107 -9 37 -46 55 -120 59 l-66 4 0 -144z m147 91 c19 -21 20 -29
11 -56 -12 -34 -41 -49 -94 -49 l-34 0 0 71 0 72 48 -7 c32 -4 54 -14 69 -31z"/>
<path d="M7840 785 c0 -4 23 -45 50 -92 43 -74 50 -92 50 -139 0 -41 4 -54 15
-54 12 0 15 13 15 60 0 54 5 68 46 138 26 42 49 80 51 85 2 4 -1 7 -7 7 -6 0
-32 -34 -58 -75 -26 -41 -51 -74 -55 -72 -4 1 -25 33 -45 71 -32 60 -62 94
-62 71z"/>
<path d="M8843 783 c-10 -3 -13 -42 -13 -144 0 -117 2 -139 15 -139 11 0 15
13 15 54 l0 53 56 6 c72 7 104 34 104 88 0 46 -30 78 -74 80 -17 1 -44 3 -61
4 -16 1 -36 0 -42 -2z m104 -24 c34 -13 43 -25 43 -65 0 -42 -22 -58 -78 -58
l-47 -1 -3 54 c-2 29 -1 60 2 67 6 17 44 18 83 3z"/>
<path d="M9166 781 c-3 -4 -4 -69 -3 -144 1 -102 5 -137 15 -137 6 0 12 12 13
28 2 59 6 92 12 98 17 17 55 -11 92 -66 22 -33 46 -60 54 -60 14 0 3 22 -46
87 l-24 33 37 36 c30 31 35 41 30 67 -7 36 -31 56 -71 58 -16 1 -47 3 -67 5
-21 2 -40 0 -42 -5z m128 -32 c53 -42 20 -109 -54 -109 l-40 0 0 65 0 65 34 0
c19 0 45 -9 60 -21z"/>
<path d="M9572 775 c-61 -26 -82 -62 -82 -135 0 -104 49 -145 167 -141 22 1
43 11 66 35 32 31 58 84 35 70 -5 -3 -4 3 3 13 28 45 -15 133 -77 159 -42 17
-70 17 -112 -1z m112 -26 c67 -53 75 -145 17 -206 -17 -18 -33 -23 -71 -23
-69 0 -101 29 -108 98 -6 64 11 108 52 133 40 25 77 24 110 -2z"/>
<path d="M9979 698 c-1 -153 -10 -178 -60 -178 -15 0 -31 -4 -34 -10 -4 -6 10
-10 34 -10 31 0 44 6 60 26 19 24 21 40 21 145 0 73 -4 119 -10 119 -6 0 -10
-38 -11 -92z"/>
<path d="M10253 783 l-81 -4 1 -139 2 -140 88 0 c55 0 87 4 87 11 0 6 -26 9
-72 8 l-73 -2 0 59 0 59 60 6 60 5 -60 5 -60 4 0 55 0 55 68 3 c37 2 67 7 67
12 0 6 -1 9 -2 8 -2 -1 -40 -4 -85 -5z"/>
<path d="M10499 788 c-3 -11 -4 -265 -1 -275 8 -25 31 -13 30 15 -3 77 2 112
18 112 18 0 79 -58 113 -107 12 -18 29 -33 37 -33 15 0 -19 51 -80 117 l-29
32 63 70 c34 39 58 71 53 71 -5 0 -40 -32 -78 -70 -39 -39 -76 -69 -84 -68
-10 2 -14 21 -15 67 -1 42 -5 66 -13 68 -7 3 -13 3 -14 1z"/>
<path d="M10820 779 c0 -5 20 -9 44 -9 25 0 47 -4 50 -9 3 -5 6 -65 7 -135 0
-105 3 -126 16 -126 12 0 14 20 11 130 -2 72 -1 131 2 131 3 1 25 2 49 3 25 1
46 7 49 14 3 9 -25 12 -112 11 -64 0 -116 -5 -116 -10z"/>
<path d="M11170 754 c72 -119 80 -138 80 -196 0 -45 3 -58 15 -58 11 0 15 12
15 51 0 41 8 66 41 125 22 40 44 76 50 79 12 8 12 25 -1 25 -10 0 -47 -54 -85
-125 l-22 -42 -17 46 c-20 54 -65 122 -85 129 -10 3 -7 -7 9 -34z"/>
<path d="M11786 780 c-100 -31 -128 -181 -46 -255 26 -24 127 -33 170 -15 28
12 30 16 30 66 l0 54 -35 0 c-19 0 -35 -4 -35 -10 0 -5 13 -10 29 -10 26 0 28
-3 25 -32 -6 -49 -26 -63 -91 -62 -50 0 -59 4 -84 32 -24 27 -29 41 -29 85 0
69 25 109 78 126 37 12 47 12 84 -2 45 -18 60 -15 37 7 -18 19 -96 28 -133 16z"/>
<path d="M12123 782 c-23 -3 -23 -6 -23 -143 0 -117 2 -139 15 -139 12 0 15
13 15 59 0 51 3 59 21 64 23 6 39 -7 86 -76 18 -26 39 -47 48 -47 11 0 5 14
-21 50 -20 27 -40 52 -45 56 -17 10 -9 34 11 34 51 0 65 104 17 128 -24 12
-88 19 -124 14z m96 -25 c13 -6 28 -22 32 -35 13 -35 -36 -82 -85 -82 l-36 0
0 65 0 65 33 0 c17 0 43 -6 56 -13z"/>
<path d="M12815 782 c-3 -3 -5 -68 -5 -144 0 -116 2 -138 15 -138 12 0 15 13
15 60 l0 59 57 3 c77 4 81 24 4 22 l-59 -1 -4 47 c-5 80 -5 80 74 80 39 0 69
2 67 4 -6 6 -158 13 -164 8z"/>
<path d="M13380 772 c-88 -43 -94 -206 -10 -256 40 -23 121 -21 151 4 29 23
26 24 -26 6 -48 -17 -92 -11 -123 17 -24 22 -57 117 -44 126 4 3 13 18 19 33
7 15 24 35 40 45 32 21 104 23 129 2 15 -12 17 -12 12 1 -12 39 -91 51 -148
22z"/>
<path d="M14234 779 c-3 -6 -7 -63 -7 -128 l-2 -117 -54 76 c-69 97 -130 170
-142 170 -6 0 -9 -59 -8 -140 1 -77 6 -140 10 -140 5 0 10 53 11 118 l3 117
64 -80 c35 -44 74 -93 87 -109 13 -17 24 -33 24 -38 0 -4 6 -8 13 -8 9 0 12
37 14 145 1 80 0 145 -2 145 -2 0 -7 -5 -11 -11z"/>
<path d="M3115 718 c-52 -119 -86 -220 -73 -216 7 2 21 21 32 41 l18 38 71 -3
70 -3 12 -34 c11 -33 35 -55 35 -33 0 6 -23 69 -51 141 -61 156 -72 163 -114
69z m78 -40 c15 -39 25 -73 23 -76 -5 -4 -59 -6 -98 -3 -10 0 -18 6 -18 11 0
15 54 140 60 140 3 0 17 -32 33 -72z"/>
<path d="M5373 683 c4 -54 7 -117 7 -140 l0 -43 75 0 c43 0 75 4 75 10 0 6
-28 10 -65 10 l-65 0 0 130 c0 114 -2 130 -17 130 -14 0 -15 -11 -10 -97z"/>
<path d="M12473 657 c-70 -165 -68 -157 -50 -157 8 0 22 18 31 40 l16 40 75 0
c60 0 75 -3 75 -15 0 -8 5 -15 11 -15 6 0 9 -6 6 -14 -3 -8 1 -20 9 -27 19
-16 28 -6 15 18 -11 17 -54 119 -89 211 -26 68 -41 55 -99 -81z m83 65 c0 -4
10 -29 22 -55 12 -27 22 -53 22 -58 0 -5 -27 -9 -61 -9 -54 0 -60 2 -55 18 41
109 52 130 61 121 5 -5 10 -13 11 -17z"/>
<path d="M13131 652 c1 -71 -1 -134 -5 -140 -4 -7 -1 -12 8 -12 14 0 16 20 16
140 0 88 -4 140 -10 140 -7 0 -10 -47 -9 -128z"/>
<path d="M13671 776 c3 -3 44 -6 92 -7 48 -1 87 -3 87 -5 0 -3 -13 -18 -30
-35 -24 -26 -127 -170 -154 -216 -6 -10 17 -13 98 -13 127 0 144 18 21 22
l-85 3 47 70 c26 39 64 92 85 118 21 27 38 53 38 58 0 5 -46 9 -102 9 -56 0
-99 -2 -97 -4z"/>
<path d="M14420 640 l0 -140 85 0 c50 0 85 4 85 10 0 6 -30 10 -70 10 l-70 0
0 60 0 59 63 4 62 3 -62 2 -63 2 0 60 0 59 73 4 72 3 -87 2 -88 2 0 -140z"/>
<path d="M4958 673 c-23 -6 -34 -49 -17 -69 7 -8 24 -14 38 -12 22 3 26 8 26
38 0 29 -3 34 -19 32 -11 -2 -15 1 -11 7 3 6 5 10 3 10 -2 -1 -11 -3 -20 -6z
m7 -33 c3 -6 -1 -7 -9 -4 -18 7 -21 14 -7 14 6 0 13 -4 16 -10z"/>
<path d="M8406 664 c-21 -21 -20 -40 4 -64 24 -24 54 -14 65 20 15 46 -35 78
-69 44z"/>
</g>
</svg>
